<svg width="56" height="40" viewBox="0 0 56 40" fill="none" xmlns="http://www.w3.org/2000/svg">
<path fill-rule="evenodd" clip-rule="evenodd" d="M13.376 0C10.2231 0 7.36423 1.85187 6.07518 4.72923L0.699174 16.7292C-0.233057 18.8101 -0.233058 21.1899 0.699173 23.2708L6.07517 35.2708C7.36423 38.1481 10.2231 40 13.376 40H47.2339C51.6521 40 55.2339 36.4183 55.2339 32V8C55.2339 3.58172 51.6522 0 47.2339 0H13.376ZM6.23387 23C7.89072 23 9.23387 21.6569 9.23387 20C9.23387 18.3431 7.89072 17 6.23387 17C4.57701 17 3.23387 18.3431 3.23387 20C3.23387 21.6569 4.57701 23 6.23387 23Z" fill="#FFC63B"/>
<path d="M16.9851 18V16.2301L20.6989 12.9787C20.9773 12.7268 21.2143 12.4964 21.4098 12.2876C21.6054 12.0755 21.7545 11.8634 21.8572 11.6513C21.96 11.4358 22.0114 11.2022 22.0114 10.9503C22.0114 10.6686 21.95 10.4283 21.8274 10.2294C21.7048 10.0272 21.5357 9.87145 21.3203 9.76207C21.1049 9.6527 20.858 9.59801 20.5795 9.59801C20.2978 9.59801 20.0509 9.65601 19.8388 9.77202C19.6267 9.88471 19.4609 10.0488 19.3416 10.2642C19.2256 10.4796 19.1676 10.7415 19.1676 11.0497H16.8359C16.8359 10.357 16.9917 9.75876 17.3033 9.25497C17.6148 8.75118 18.0523 8.3634 18.6158 8.09162C19.1825 7.81652 19.8404 7.67898 20.5895 7.67898C21.3617 7.67898 22.0329 7.80824 22.603 8.06676C23.1731 8.32528 23.6139 8.68655 23.9254 9.15057C24.2403 9.61127 24.3977 10.1465 24.3977 10.7564C24.3977 11.1442 24.3198 11.5286 24.1641 11.9098C24.0083 12.291 23.7282 12.7119 23.3239 13.1726C22.9228 13.6333 22.3527 14.1851 21.6136 14.8281L20.3956 15.9517V16.0163H24.522V18H16.9851ZM29.1105 18.1392C28.3681 18.1392 27.7086 18.005 27.1319 17.7365C26.5551 17.468 26.0994 17.0985 25.7647 16.6278C25.4332 16.1572 25.2609 15.617 25.2476 15.0071H27.634C27.6539 15.3816 27.8063 15.6832 28.0914 15.9119C28.3764 16.1373 28.7161 16.25 29.1105 16.25C29.4188 16.25 29.6922 16.1821 29.9309 16.0462C30.1695 15.9103 30.3568 15.7197 30.4926 15.4744C30.6285 15.2259 30.6948 14.9408 30.6915 14.6193C30.6948 14.2912 30.6269 14.0045 30.4877 13.7592C30.3518 13.514 30.1629 13.3234 29.9209 13.1875C29.6823 13.0483 29.4072 12.9787 29.0956 12.9787C28.8007 12.9754 28.5206 13.04 28.2554 13.1726C27.9936 13.3052 27.7947 13.4858 27.6588 13.7145L25.4863 13.3068L25.9287 7.81818H32.4614V9.80185H27.9522L27.7185 12.2031H27.7782C27.9472 11.9214 28.219 11.6894 28.5935 11.5071C28.9713 11.3215 29.4006 11.2287 29.8811 11.2287C30.491 11.2287 31.0346 11.3712 31.5118 11.6562C31.9924 11.938 32.3703 12.3291 32.6453 12.8295C32.9238 13.33 33.063 13.9034 33.063 14.5497C33.063 15.2491 32.8972 15.8688 32.5658 16.4091C32.2377 16.9493 31.777 17.3736 31.1837 17.6818C30.5937 17.9867 29.9027 18.1392 29.1105 18.1392ZM39.4164 16.0909V15.554C39.4164 15.1364 39.5059 14.7502 39.6849 14.3956C39.8672 14.041 40.1307 13.7559 40.4754 13.5405C40.8201 13.325 41.241 13.2173 41.7381 13.2173C42.2452 13.2173 42.6711 13.325 43.0158 13.5405C43.3639 13.7526 43.6257 14.036 43.8014 14.3906C43.9803 14.742 44.0698 15.1297 44.0698 15.554V16.0909C44.0698 16.5085 43.9803 16.8946 43.8014 17.2493C43.6224 17.6039 43.3589 17.889 43.0109 18.1044C42.6629 18.3198 42.2386 18.4276 41.7381 18.4276C41.2344 18.4276 40.8101 18.3198 40.4654 18.1044C40.1207 17.889 39.8589 17.6039 39.6799 17.2493C39.5042 16.8946 39.4164 16.5085 39.4164 16.0909ZM41.0023 15.554V16.0909C41.0023 16.303 41.0537 16.5069 41.1565 16.7024C41.2625 16.898 41.4564 16.9957 41.7381 16.9957C42.0265 16.9957 42.2204 16.9013 42.3198 16.7124C42.4192 16.5201 42.469 16.313 42.469 16.0909V15.554C42.469 15.3319 42.4209 15.1231 42.3248 14.9276C42.232 14.7287 42.0364 14.6293 41.7381 14.6293C41.4597 14.6293 41.2675 14.7287 41.1614 14.9276C41.0554 15.1231 41.0023 15.3319 41.0023 15.554ZM34.1366 10.2642V9.72727C34.1366 9.30303 34.2277 8.91525 34.41 8.56392C34.5956 8.20928 34.8608 7.9259 35.2055 7.71378C35.5502 7.49834 35.9678 7.39062 36.4583 7.39062C36.9654 7.39062 37.3913 7.49834 37.736 7.71378C38.084 7.9259 38.3475 8.20928 38.5265 8.56392C38.7055 8.91525 38.795 9.30303 38.795 9.72727V10.2642C38.795 10.6884 38.7038 11.0762 38.5215 11.4276C38.3425 11.7789 38.079 12.0589 37.731 12.2678C37.383 12.4766 36.9588 12.581 36.4583 12.581C35.9578 12.581 35.5336 12.4749 35.1856 12.2628C34.8409 12.0507 34.579 11.7689 34.4001 11.4176C34.2244 11.0663 34.1366 10.6818 34.1366 10.2642ZM35.7374 9.72727V10.2642C35.7374 10.4863 35.7888 10.6934 35.8915 10.8857C35.9976 11.0746 36.1865 11.169 36.4583 11.169C36.75 11.169 36.9439 11.0746 37.04 10.8857C37.1394 10.6934 37.1891 10.4863 37.1891 10.2642V9.72727C37.1891 9.50521 37.1427 9.2964 37.0499 9.10085C36.9571 8.90199 36.7599 8.80256 36.4583 8.80256C36.1799 8.80256 35.9893 8.90365 35.8866 9.10582C35.7871 9.308 35.7374 9.51515 35.7374 9.72727ZM34.8873 18L41.8873 7.81818H43.2445L36.2445 18H34.8873ZM26.1974 26.9091C26.1974 27.9962 25.9986 28.9309 25.6009 29.7131C25.2031 30.492 24.6579 31.0919 23.9652 31.5128C23.2758 31.9304 22.492 32.1392 21.6136 32.1392C20.732 32.1392 19.9448 31.9304 19.2521 31.5128C18.5627 31.0919 18.0192 30.4903 17.6214 29.7081C17.2237 28.9259 17.0249 27.9929 17.0249 26.9091C17.0249 25.822 17.2237 24.889 17.6214 24.1101C18.0192 23.3279 18.5627 22.728 19.2521 22.3104C19.9448 21.8894 20.732 21.679 21.6136 21.679C22.492 21.679 23.2758 21.8894 23.9652 22.3104C24.6579 22.728 25.2031 23.3279 25.6009 24.1101C25.9986 24.889 26.1974 25.822 26.1974 26.9091ZM24.6761 26.9091C24.6761 26.0805 24.5419 25.3828 24.2734 24.8161C24.0083 24.246 23.6437 23.8151 23.1797 23.5234C22.719 23.2285 22.197 23.081 21.6136 23.081C21.027 23.081 20.5033 23.2285 20.0426 23.5234C19.5819 23.8151 19.2173 24.246 18.9489 24.8161C18.6837 25.3828 18.5511 26.0805 18.5511 26.9091C18.5511 27.7377 18.6837 28.437 18.9489 29.0071C19.2173 29.5739 19.5819 30.0047 20.0426 30.2997C20.5033 30.5914 21.027 30.7372 21.6136 30.7372C22.197 30.7372 22.719 30.5914 23.1797 30.2997C23.6437 30.0047 24.0083 29.5739 24.2734 29.0071C24.5419 28.437 24.6761 27.7377 24.6761 26.9091ZM27.4127 32V21.8182H33.7267V23.1406H28.949V26.2429H33.2743V27.5604H28.949V32H27.4127ZM34.9159 32V21.8182H41.2298V23.1406H36.4521V26.2429H40.7774V27.5604H36.4521V32H34.9159Z" fill="#242119"/>
</svg>
