<svg width="94" height="21" viewBox="0 0 94 21" fill="none" xmlns="http://www.w3.org/2000/svg">
<path d="M10.2003 17.1989C9.31013 17.1989 8.50994 17.0284 7.79972 16.6875C7.09422 16.3419 6.53078 15.8684 6.10938 15.267C5.68797 14.6657 5.46307 13.9792 5.43466 13.2074H7.56534C7.61742 13.8324 7.89441 14.3461 8.39631 14.7486C8.8982 15.151 9.49953 15.3523 10.2003 15.3523C10.759 15.3523 11.2538 15.2244 11.6847 14.9688C12.1203 14.7083 12.4612 14.3509 12.7074 13.8963C12.9583 13.4418 13.0838 12.9233 13.0838 12.3409C13.0838 11.7491 12.956 11.2211 12.7003 10.7571C12.4446 10.2931 12.0919 9.9285 11.642 9.66335C11.197 9.3982 10.6856 9.26326 10.108 9.25852C9.66761 9.25852 9.22491 9.33428 8.77983 9.4858C8.33475 9.63731 7.97491 9.83617 7.70028 10.0824L5.69034 9.78409L6.5071 2.45455H14.5043V4.33665H8.33239L7.87074 8.40625H7.95597C8.24006 8.13163 8.61648 7.90199 9.08523 7.71733C9.55871 7.53267 10.0653 7.44034 10.6051 7.44034C11.4905 7.44034 12.2789 7.65104 12.9702 8.07244C13.6662 8.49384 14.2131 9.06913 14.6108 9.7983C15.0133 10.5227 15.2121 11.3561 15.2074 12.2983C15.2121 13.2405 14.9991 14.081 14.5682 14.8196C14.142 15.5582 13.5502 16.1406 12.7926 16.5668C12.0398 16.9882 11.1757 17.1989 10.2003 17.1989ZM18.7017 17.1349C18.3134 17.1349 17.9796 16.9976 17.7003 16.723C17.4209 16.4437 17.2812 16.1075 17.2812 15.7145C17.2812 15.3262 17.4209 14.9948 17.7003 14.7202C17.9796 14.4408 18.3134 14.3011 18.7017 14.3011C19.09 14.3011 19.4238 14.4408 19.7031 14.7202C19.9825 14.9948 20.1222 15.3262 20.1222 15.7145C20.1222 15.9749 20.0559 16.214 19.9233 16.4318C19.7955 16.6449 19.625 16.8153 19.4119 16.9432C19.1989 17.071 18.9621 17.1349 18.7017 17.1349ZM27.3647 17.1989C26.3467 17.1989 25.4471 17.0237 24.6658 16.6733C23.8893 16.3229 23.2809 15.84 22.8406 15.2244C22.4002 14.6089 22.1824 13.9081 22.1871 13.1222C22.1824 12.5066 22.3079 11.9408 22.5636 11.4247C22.824 10.9039 23.1767 10.4706 23.6218 10.125C24.0669 9.77462 24.564 9.55208 25.1133 9.45739V9.37216C24.3888 9.19697 23.8088 8.80871 23.3732 8.20739C22.9376 7.60606 22.7222 6.91477 22.7269 6.13352C22.7222 5.39015 22.9187 4.72727 23.3164 4.14489C23.7189 3.55776 24.2705 3.09612 24.9712 2.75994C25.672 2.42377 26.4698 2.25568 27.3647 2.25568C28.2501 2.25568 29.0408 2.42614 29.7369 2.76705C30.4376 3.10322 30.9892 3.56487 31.3917 4.15199C31.7942 4.73437 31.9978 5.39489 32.0025 6.13352C31.9978 6.91477 31.7752 7.60606 31.3349 8.20739C30.8945 8.80871 30.3216 9.19697 29.6161 9.37216V9.45739C30.1606 9.55208 30.6507 9.77462 31.0863 10.125C31.5266 10.4706 31.877 10.9039 32.1374 11.4247C32.4026 11.9408 32.5375 12.5066 32.5423 13.1222C32.5375 13.9081 32.315 14.6089 31.8746 15.2244C31.4343 15.84 30.8235 16.3229 30.0423 16.6733C29.2657 17.0237 28.3732 17.1989 27.3647 17.1989ZM27.3647 15.402C27.966 15.402 28.4869 15.3026 28.9272 15.1037C29.3675 14.9001 29.7085 14.6184 29.9499 14.2585C30.1914 13.8939 30.3145 13.4678 30.3192 12.9801C30.3145 12.4735 30.1819 12.026 29.9215 11.6378C29.6658 11.2495 29.3178 10.9441 28.8775 10.7216C28.4371 10.4991 27.9329 10.3878 27.3647 10.3878C26.7918 10.3878 26.2828 10.4991 25.8377 10.7216C25.3926 10.9441 25.0423 11.2495 24.7866 11.6378C24.5309 12.026 24.4054 12.4735 24.4102 12.9801C24.4054 13.4678 24.5214 13.8939 24.7582 14.2585C24.9996 14.6184 25.3429 14.9001 25.788 15.1037C26.2331 15.3026 26.7586 15.402 27.3647 15.402ZM27.3647 8.63352C27.8477 8.63352 28.2762 8.53646 28.6502 8.34233C29.0243 8.1482 29.3178 7.87831 29.5309 7.53267C29.7487 7.18703 29.86 6.7822 29.8647 6.31818C29.86 5.86364 29.7511 5.46591 29.538 5.125C29.3297 4.78409 29.0385 4.52131 28.6644 4.33665C28.2904 4.14725 27.8571 4.05256 27.3647 4.05256C26.8628 4.05256 26.4225 4.14725 26.0437 4.33665C25.6696 4.52131 25.3784 4.78409 25.1701 5.125C24.9618 5.46591 24.86 5.86364 24.8647 6.31818C24.86 6.7822 24.9641 7.18703 25.1772 7.53267C25.3903 7.87831 25.6838 8.1482 26.0579 8.34233C26.4367 8.53646 26.8723 8.63352 27.3647 8.63352ZM39.9233 2.25568C40.572 2.26042 41.2112 2.37879 41.8409 2.6108C42.4706 2.8428 43.0388 3.22159 43.5455 3.74716C44.0568 4.27273 44.464 4.98295 44.767 5.87784C45.0748 6.76799 45.2311 7.87595 45.2358 9.2017C45.2358 10.4754 45.108 11.6094 44.8523 12.6037C44.5966 13.5933 44.2296 14.429 43.7514 15.1108C43.2779 15.7926 42.7027 16.3111 42.0256 16.6662C41.3485 17.0213 40.5862 17.1989 39.7386 17.1989C38.8722 17.1989 38.1027 17.0284 37.4304 16.6875C36.758 16.3466 36.2112 15.8755 35.7898 15.2741C35.3684 14.6681 35.1056 13.9721 35.0014 13.1861H37.1676C37.3097 13.8111 37.5985 14.3177 38.0341 14.706C38.4744 15.0895 39.0426 15.2812 39.7386 15.2812C40.804 15.2812 41.6349 14.8172 42.2315 13.8892C42.8281 12.9564 43.1288 11.6544 43.1335 9.98295H43.0199C42.7737 10.3902 42.4659 10.7405 42.0966 11.0341C41.732 11.3277 41.3224 11.5549 40.8679 11.7159C40.4134 11.8769 39.928 11.9574 39.4119 11.9574C38.5739 11.9574 37.8116 11.7514 37.125 11.3395C36.4384 10.9276 35.8916 10.3617 35.4844 9.64205C35.0772 8.92235 34.8736 8.10085 34.8736 7.17756C34.8736 6.259 35.0819 5.42566 35.4986 4.67756C35.92 3.92945 36.5071 3.33759 37.2599 2.90199C38.0175 2.46165 38.9053 2.24621 39.9233 2.25568ZM39.9304 4.10227C39.3764 4.10227 38.8769 4.23958 38.4318 4.5142C37.9915 4.78409 37.6435 5.15104 37.3878 5.61506C37.1321 6.07434 37.0043 6.5857 37.0043 7.14915C37.0043 7.71259 37.1274 8.22396 37.3736 8.68324C37.6245 9.13778 37.9654 9.5 38.3963 9.76989C38.8319 10.035 39.3291 10.1676 39.8878 10.1676C40.3045 10.1676 40.6927 10.0871 41.0526 9.92614C41.4124 9.76515 41.7273 9.54261 41.9972 9.25852C42.267 8.9697 42.4777 8.64299 42.6293 8.27841C42.7808 7.91383 42.8565 7.5303 42.8565 7.12784C42.8565 6.5928 42.7287 6.09564 42.473 5.63636C42.2221 5.17708 41.8764 4.80776 41.4361 4.52841C40.9957 4.24432 40.4938 4.10227 39.9304 4.10227ZM52.6026 17.1989C51.7125 17.1989 50.9123 17.0284 50.2021 16.6875C49.4966 16.3419 48.9331 15.8684 48.5117 15.267C48.0903 14.6657 47.8654 13.9792 47.837 13.2074H49.9677C50.0198 13.8324 50.2968 14.3461 50.7987 14.7486C51.3005 15.151 51.9019 15.3523 52.6026 15.3523C53.1613 15.3523 53.6561 15.2244 54.087 14.9688C54.5226 14.7083 54.8635 14.3509 55.1097 13.8963C55.3607 13.4418 55.4862 12.9233 55.4862 12.3409C55.4862 11.7491 55.3583 11.2211 55.1026 10.7571C54.8469 10.2931 54.4942 9.9285 54.0444 9.66335C53.5993 9.3982 53.0879 9.26326 52.5103 9.25852C52.07 9.25852 51.6272 9.33428 51.1822 9.4858C50.7371 9.63731 50.3772 9.83617 50.1026 10.0824L48.0927 9.78409L48.9094 2.45455H56.9066V4.33665H50.7347L50.2731 8.40625H50.3583C50.6424 8.13163 51.0188 7.90199 51.4876 7.71733C51.9611 7.53267 52.4677 7.44034 53.0075 7.44034C53.8929 7.44034 54.6812 7.65104 55.3725 8.07244C56.0685 8.49384 56.6154 9.06913 57.0131 9.7983C57.4156 10.5227 57.6145 11.3561 57.6097 12.2983C57.6145 13.2405 57.4014 14.081 56.9705 14.8196C56.5444 15.5582 55.9525 16.1406 55.195 16.5668C54.4421 16.9882 53.578 17.1989 52.6026 17.1989ZM62.4677 15.0114L62.3612 15.7855C62.2901 16.3537 62.1694 16.9455 61.9989 17.5611C61.8332 18.1813 61.6604 18.7566 61.4805 19.2869C61.3053 19.8172 61.1609 20.2386 61.0472 20.5511H59.5415C59.6031 20.2576 59.6883 19.8598 59.7972 19.358C59.9061 18.8608 60.0127 18.3045 60.1168 17.6889C60.221 17.0734 60.2991 16.446 60.3512 15.8068L60.4222 15.0114H62.4677ZM65.4382 17V15.4091L70.3601 10.3097C70.8857 9.75568 71.3189 9.27036 71.6598 8.85369C72.0054 8.43229 72.2635 8.0322 72.4339 7.65341C72.6044 7.27462 72.6896 6.87216 72.6896 6.44602C72.6896 5.96307 72.576 5.5464 72.3487 5.19602C72.1214 4.84091 71.8113 4.56866 71.4183 4.37926C71.0253 4.18513 70.5826 4.08807 70.0902 4.08807C69.5694 4.08807 69.1148 4.1946 68.7266 4.40767C68.3383 4.62074 68.04 4.9214 67.8317 5.30966C67.6233 5.69792 67.5192 6.15246 67.5192 6.6733H65.424C65.424 5.78788 65.6276 5.01373 66.0348 4.35085C66.442 3.68797 67.0007 3.17424 67.7109 2.80966C68.4212 2.44034 69.2285 2.25568 70.1328 2.25568C71.0466 2.25568 71.8516 2.43797 72.5476 2.80256C73.2483 3.1624 73.7952 3.65483 74.1882 4.27983C74.5812 4.90009 74.7777 5.60085 74.7777 6.3821C74.7777 6.92188 74.6759 7.44981 74.4723 7.96591C74.2734 8.48201 73.9254 9.05729 73.4283 9.69176C72.9311 10.3215 72.2398 11.0862 71.3544 11.9858L68.4638 15.0114V15.1179H75.0121V17H65.4382ZM82.7678 17.1989C81.7924 17.1989 80.9212 17.0308 80.1541 16.6946C79.3918 16.3584 78.7881 15.892 78.343 15.2955C77.9027 14.6941 77.666 13.9981 77.6328 13.2074H79.8629C79.8913 13.6383 80.0357 14.0123 80.2962 14.3295C80.5613 14.642 80.907 14.8835 81.3331 15.054C81.7592 15.2244 82.2327 15.3097 82.7536 15.3097C83.3265 15.3097 83.8331 15.2102 84.2734 15.0114C84.7185 14.8125 85.0665 14.5355 85.3175 14.1804C85.5684 13.8205 85.6939 13.4062 85.6939 12.9375C85.6939 12.4498 85.5684 12.0213 85.3175 11.652C85.0713 11.2779 84.709 10.9844 84.2308 10.7713C83.7573 10.5582 83.1844 10.4517 82.5121 10.4517H81.2834V8.66193H82.5121C83.0518 8.66193 83.5253 8.56487 83.9325 8.37074C84.3445 8.17661 84.6664 7.90672 84.8984 7.56108C85.1304 7.2107 85.2464 6.80114 85.2464 6.33239C85.2464 5.88258 85.1446 5.49195 84.9411 5.16051C84.7422 4.82434 84.4581 4.56155 84.0888 4.37216C83.7242 4.18276 83.2933 4.08807 82.7962 4.08807C82.3227 4.08807 81.88 4.17566 81.468 4.35085C81.0608 4.52131 80.7294 4.76752 80.4737 5.08949C80.218 5.40672 80.0807 5.78788 80.0618 6.23295H77.9382C77.9619 5.44697 78.1939 4.75568 78.6342 4.15909C79.0793 3.5625 79.6664 3.09612 80.3956 2.75994C81.1248 2.42377 81.9344 2.25568 82.8246 2.25568C83.7573 2.25568 84.5623 2.43797 85.2393 2.80256C85.9212 3.1624 86.4467 3.64299 86.8161 4.24432C87.1901 4.84564 87.3748 5.50379 87.37 6.21875C87.3748 7.03314 87.1475 7.72443 86.6882 8.29261C86.2337 8.8608 85.6276 9.24195 84.87 9.43608V9.54972C85.8359 9.6965 86.584 10.08 87.1143 10.7003C87.6494 11.3205 87.9145 12.09 87.9098 13.0085C87.9145 13.8087 87.692 14.526 87.2422 15.1605C86.7971 15.795 86.1887 16.2945 85.4169 16.6591C84.6451 17.0189 83.7621 17.1989 82.7678 17.1989Z" fill="white"/>
<line x1="1" y1="10" x2="93" y2="10" stroke="url(#paint0_linear_361_2653)" stroke-width="2" stroke-linecap="round"/>
<defs>
<linearGradient id="paint0_linear_361_2653" x1="87.6777" y1="11" x2="-3.22081" y2="11" gradientUnits="userSpaceOnUse">
<stop stop-color="#FF5294"/>
<stop offset="0.20074" stop-color="#EB78EB"/>
<stop offset="0.518467" stop-color="#00DFFF"/>
<stop offset="0.70077" stop-color="#FFC63B"/>
<stop offset="1" stop-color="#FF837B"/>
</linearGradient>
</defs>
</svg>
